<svg width="111" height="34" viewBox="0 0 111 34" fill="none" xmlns="http://www.w3.org/2000/svg">
<path d="M1.78642 6.9251L1.16628 7.28671L1.78234 7.65524L4.71921 9.41208V31.956V32.38H5.14321H10.3458H10.7698V31.956V2.4248V1.68674L10.1322 2.05853L1.78642 6.9251Z" fill="#D80E22" stroke="#D80E22" stroke-width="0.848"/>
<mask id="path-2-outside-1_562_5310" maskUnits="userSpaceOnUse" x="11.8145" y="1.53711" width="99" height="33" fill="black">
<rect fill="white" x="11.8145" y="1.53711" width="99" height="33"/>
<path fill-rule="evenodd" clip-rule="evenodd" d="M39.6104 2.53711L13.8145 17.6898L39.6104 32.9532L61.1764 20.299L82.5627 32.9532L108.575 17.6898L82.5627 2.53711L61.1764 15.0996L39.6104 2.53711ZM39.3935 8.06733L23.0272 17.6899L39.3935 27.5336L56.7354 17.6899L39.3935 8.06733ZM82.3458 8.06733L65.9795 17.6899L82.3458 27.5336L99.6877 17.6899L82.3458 8.06733Z"/>
</mask>
<path fill-rule="evenodd" clip-rule="evenodd" d="M39.6104 2.53711L13.8145 17.6898L39.6104 32.9532L61.1764 20.299L82.5627 32.9532L108.575 17.6898L82.5627 2.53711L61.1764 15.0996L39.6104 2.53711ZM39.3935 8.06733L23.0272 17.6899L39.3935 27.5336L56.7354 17.6899L39.3935 8.06733ZM82.3458 8.06733L65.9795 17.6899L82.3458 27.5336L99.6877 17.6899L82.3458 8.06733Z" fill="#D80E22"/>
<path d="M13.8145 17.6898L13.385 16.9587L12.1447 17.6872L13.3826 18.4197L13.8145 17.6898ZM39.6104 2.53711L40.0373 1.80436L39.6086 1.55468L39.1809 1.80592L39.6104 2.53711ZM39.6104 32.9532L39.1786 33.683L39.6086 33.9374L40.0396 33.6846L39.6104 32.9532ZM61.1764 20.299L61.6083 19.5692L61.1782 19.3148L60.7473 19.5676L61.1764 20.299ZM82.5627 32.9532L82.1309 33.683L82.5609 33.9374L82.9919 33.6846L82.5627 32.9532ZM108.575 17.6898L109.005 18.4212L110.256 17.6872L109.002 16.9571L108.575 17.6898ZM82.5627 2.53711L82.9895 1.80436L82.5609 1.55468L82.1332 1.80592L82.5627 2.53711ZM61.1764 15.0996L60.7496 15.8323L61.1782 16.082L61.6059 15.8307L61.1764 15.0996ZM23.0272 17.6899L22.5974 16.9588L21.3681 17.6816L22.5901 18.4165L23.0272 17.6899ZM39.3935 8.06733L39.805 7.32583L39.3814 7.09078L38.9637 7.33632L39.3935 8.06733ZM39.3935 27.5336L38.9565 28.2603L39.3812 28.5157L39.8121 28.2711L39.3935 27.5336ZM56.7354 17.6899L57.154 18.4273L58.468 17.6815L57.1468 16.9484L56.7354 17.6899ZM65.9795 17.6899L65.5497 16.9588L64.3204 17.6816L65.5424 18.4165L65.9795 17.6899ZM82.3458 8.06733L82.7573 7.32583L82.3337 7.09078L81.916 7.33632L82.3458 8.06733ZM82.3458 27.5336L81.9088 28.2603L82.3335 28.5157L82.7644 28.2711L82.3458 27.5336ZM99.6877 17.6899L100.106 18.4273L101.42 17.6815L100.099 16.9484L99.6877 17.6899ZM14.244 18.421L40.0399 3.26829L39.1809 1.80592L13.385 16.9587L14.244 18.421ZM40.0422 32.2234L14.2463 16.96L13.3826 18.4197L39.1786 33.683L40.0422 32.2234ZM60.7473 19.5676L39.1813 32.2218L40.0396 33.6846L61.6056 21.0304L60.7473 19.5676ZM82.9945 32.2234L61.6083 19.5692L60.7446 21.0288L82.1309 33.683L82.9945 32.2234ZM108.146 16.9584L82.1336 32.2218L82.9919 33.6846L109.005 18.4212L108.146 16.9584ZM82.1359 3.26986L108.149 18.4226L109.002 16.9571L82.9895 1.80436L82.1359 3.26986ZM61.6059 15.8307L82.9922 3.26829L82.1332 1.80592L60.7469 14.3684L61.6059 15.8307ZM39.1836 3.26986L60.7496 15.8323L61.6033 14.3668L40.0373 1.80436L39.1836 3.26986ZM23.457 18.4209L39.8233 8.79834L38.9637 7.33632L22.5974 16.9588L23.457 18.4209ZM39.8306 26.8069L23.4643 16.9632L22.5901 18.4165L38.9565 28.2603L39.8306 26.8069ZM56.3168 16.9524L38.9749 26.7961L39.8121 28.2711L57.154 18.4273L56.3168 16.9524ZM38.9821 8.80883L56.3239 18.4314L57.1468 16.9484L39.805 7.32583L38.9821 8.80883ZM66.4093 18.4209L82.7756 8.79834L81.916 7.33632L65.5497 16.9588L66.4093 18.4209ZM82.7829 26.8069L66.4166 16.9632L65.5424 18.4165L81.9088 28.2603L82.7829 26.8069ZM99.269 16.9524L81.9272 26.7961L82.7644 28.2711L100.106 18.4273L99.269 16.9524ZM81.9344 8.80883L99.2762 18.4314L100.099 16.9484L82.7573 7.32583L81.9344 8.80883Z" fill="#D80E22" mask="url(#path-2-outside-1_562_5310)"/>
</svg>
